# xmcd
#
# Track frame offsets:
#	150
#	17984
#	37253
#	55294
#	73798
#	93011
#	109319
#	129603
#	147470
#	169476
#	187470
#	209529
#
# Disc length: 3118 seconds
#
# Revision: 4294115298
# Processed by: cddbd v1.5.2PL0 Copyright (c) Steve Scherf et al.
# Submitted via: EZCDAudioConverter 8.0.2.1
#
DISCID=c70c2c0c
DTITLE=Vũ Quốc Việt and Freinds - Bởi Thế Ta Yêu Nhau
DYEAR=2011
DGENRE=
TTITLE0=Vũ Quốc Việt, Kim Ngân - Bởi Thế Ta Yêu Nhau
TTITLE1=Đình Nguyên - Bởi Thế Ta Yêu Nhau
TTITLE2=Triệu Lộc - Bởi Thế Ta Yêu Nhau
TTITLE3=Ngọc Ánh (ido) - Bởi Thế Ta Yêu Nhau
TTITLE4=Ngọc Ký (Sao Mai) - Bởi Thế Ta Yêu Nhau
TTITLE5=Đàm Vĩnh Hưng - Bởi Thế Ta Yêu Nhau
TTITLE6=Quang Hà - Bởi Thế Ta Yêu Nhau
TTITLE7=Huỳnh Lợi - Bởi Thế Ta Yêu Nhau
TTITLE8=Vũ Quốc Việt - Không Thể quên
TTITLE9=Vũ Quốc Việt - Hạnh phúc mong manh
TTITLE10=Vũ Quốc Việt - Vàng son một thuở yêu em
TTITLE11=Vũ Quốc Việt - Tình yêu là thế
EXTD=
EXTT0=
EXTT1=
EXTT2=
EXTT3=
EXTT4=
EXTT5=
EXTT6=
EXTT7=
EXTT8=
EXTT9=
EXTT10=
EXTT11=
PLAYORDER=
